<mxfile host="app.diagrams.net" modified="2024-02-21T11:05:13.529Z" agent="Mozilla/5.0 (Macintosh; Intel Mac OS X 10_15_7) AppleWebKit/537.36 (KHTML, like Gecko) Chrome/121.0.0.0 Safari/537.36" version="23.1.5" etag="0D1-tKuFS4Q3Kqd4cvG3" type="github">
  <diagram name="第 1 页" id="kZFz7qjB4NcAqKcPmEO5">
    <mxGraphModel>
      <root>
        <mxCell id="0" />
        <mxCell id="1" parent="0" />
      </root>
    </mxGraphModel>
  </diagram>
</mxfile>
